<svg width="20" height="21" viewBox="0 0 20 21" fill="none" xmlns="http://www.w3.org/2000/svg">
<path d="M17.5 10.2833C17.5029 11.3832 17.2459 12.4682 16.75 13.45C16.162 14.6264 15.2581 15.616 14.1395 16.3077C13.021 16.9995 11.7319 17.3661 10.4167 17.3666C9.31678 17.3695 8.23176 17.1125 7.25 16.6166L2.5 18.2L4.08333 13.45C3.58744 12.4682 3.33047 11.3832 3.33333 10.2833C3.33384 8.96811 3.70051 7.67902 4.39227 6.56043C5.08402 5.44185 6.07355 4.53795 7.25 3.94997C8.23176 3.45408 9.31678 3.19711 10.4167 3.19997H10.8333C12.5703 3.2958 14.2109 4.02894 15.441 5.25902C16.671 6.48911 17.4042 8.12969 17.5 9.86664V10.2833Z" stroke="#9F9F9F" stroke-linecap="round" stroke-linejoin="round"/>
</svg>
